<svg xmlns="http://www.w3.org/2000/svg" viewBox="0 0 96 32" role="img" aria-labelledby="title">
  <title id="title">Stripe</title>
  <rect width="96" height="32" rx="7" fill="#635BFF"/>
  <path fill="#fff" d="M22.6 13.6c0-.8.7-1.1 1.8-1.1 1.6 0 3.6.5 5.2 1.3v-4.9c-1.7-.7-3.4-1-5.2-1-4.3 0-7.1 2.2-7.1 5.9 0 5.8 8 4.9 8 7.4 0 1-.8 1.3-2 1.3-1.7 0-3.9-.7-5.7-1.7v5c1.9.8 3.8 1.2 5.7 1.2 4.4 0 7.4-2.2 7.4-6 0-6.3-8.1-5.1-8.1-7.4Zm15.5-9.7-5.2 1.1v16.4c0 3 2.2 5.2 5.2 5.2 1.6 0 2.8-.3 3.5-.6v-4.3c-.6.2-3.5.9-3.5-1.6v-7h3.5V8.3h-3.5V3.9Zm10 6.1-.3-1.7h-4.6v18.1h5.3V14.1c1.2-1.6 3.2-1.3 3.8-1.1V8.3c-.7-.3-3-.8-4.2 1.7Zm5.8-1.7h5.3v18.1h-5.3V8.3Zm0-5.7h5.3V7h-5.3V2.6Zm16.5 5.4c-2.1 0-3.5 1-4.3 1.7l-.3-1.4h-4.6v24.1l5.3-1.1v-5.8c.8.6 2 1.1 3.8 1.1 3.8 0 7.2-3 7.2-9.6 0-6-3.5-9-7.1-9Zm-1.3 14.1c-1.2 0-1.9-.4-2.5-.9v-7.5c.5-.6 1.3-1 2.5-1 1.9 0 3.2 2.1 3.2 4.7 0 2.8-1.3 4.7-3.2 4.7Zm26.4-4.6c0-5.3-2.6-9.5-7.7-9.5s-8.2 4.2-8.2 9.5c0 6.3 3.6 9.4 8.9 9.4 2.6 0 4.5-.6 6-1.4v-4.3c-1.5.8-3.2 1.3-5.4 1.3-2.1 0-4-.8-4.2-3.4h10.5c0-.3.1-1.3.1-1.6Zm-10.6-2.3c0-2.5 1.5-3.5 2.9-3.5s2.8 1 2.8 3.5h-5.7Z"/>
</svg>
